<?xml version="1.0" encoding="UTF-8" standalone="no"?>
<!DOCTYPE svg PUBLIC "-//W3C//DTD SVG 1.1//EN" "http://www.w3.org/Graphics/SVG/1.1/DTD/svg11.dtd">
<svg width="100%" height="100%" viewBox="0 0 721 295" version="1.1" xmlns="http://www.w3.org/2000/svg" xmlns:xlink="http://www.w3.org/1999/xlink" xml:space="preserve" xmlns:serif="http://www.serif.com/" style="fill-rule:evenodd;clip-rule:evenodd;stroke-linejoin:round;stroke-miterlimit:2;">
    <g id="Artboard1" transform="matrix(0.803567,0,0,0.581296,-399.079,-503.996)">
        <rect x="496.634" y="867.021" width="896.918" height="506.889" style="fill:none;"/>
        <g transform="matrix(1.24445,0,0,1.72029,-301.347,-1150.07)">
            <g transform="matrix(328.301,0,0,328.301,665.426,1437.37)">
                <path d="M0.299,0.01C0.22,0.01 0.157,-0.011 0.111,-0.054C0.064,-0.097 0.04,-0.16 0.038,-0.244C0.038,-0.249 0.038,-0.255 0.038,-0.262C0.038,-0.269 0.038,-0.275 0.038,-0.279C0.04,-0.332 0.052,-0.377 0.074,-0.414C0.095,-0.452 0.125,-0.481 0.163,-0.5C0.202,-0.52 0.247,-0.53 0.298,-0.53C0.357,-0.53 0.405,-0.518 0.444,-0.495C0.482,-0.472 0.511,-0.44 0.53,-0.4C0.55,-0.36 0.559,-0.314 0.559,-0.263L0.559,-0.239C0.559,-0.232 0.557,-0.226 0.552,-0.221C0.547,-0.216 0.541,-0.214 0.534,-0.214L0.214,-0.214L0.214,-0.207C0.215,-0.187 0.218,-0.17 0.224,-0.154C0.23,-0.138 0.24,-0.126 0.252,-0.116C0.265,-0.107 0.28,-0.102 0.298,-0.102C0.311,-0.102 0.322,-0.104 0.331,-0.109C0.34,-0.113 0.348,-0.118 0.354,-0.123C0.36,-0.129 0.365,-0.134 0.368,-0.138C0.374,-0.145 0.379,-0.149 0.383,-0.151C0.386,-0.153 0.392,-0.154 0.4,-0.154L0.524,-0.154C0.53,-0.154 0.536,-0.152 0.54,-0.148C0.544,-0.144 0.546,-0.139 0.546,-0.132C0.545,-0.121 0.539,-0.107 0.529,-0.091C0.518,-0.075 0.503,-0.059 0.483,-0.044C0.462,-0.028 0.437,-0.015 0.406,-0.005C0.375,0.005 0.339,0.01 0.299,0.01ZM0.214,-0.313L0.383,-0.313L0.383,-0.315C0.383,-0.337 0.38,-0.355 0.373,-0.371C0.367,-0.387 0.357,-0.399 0.344,-0.408C0.332,-0.416 0.316,-0.421 0.298,-0.421C0.28,-0.421 0.265,-0.416 0.253,-0.408C0.24,-0.399 0.23,-0.387 0.224,-0.371C0.217,-0.355 0.214,-0.337 0.214,-0.315L0.214,-0.313Z" style="fill:rgb(205,206,214);fill-rule:nonzero;"/>
            </g>
            <g transform="matrix(1.1,0,0,1,-85.6498,0)">
                <g transform="matrix(328.301,0,0,328.301,856.498,1437.37)">
                    <path d="M0.084,-0C0.077,-0 0.071,-0.002 0.066,-0.007C0.061,-0.012 0.059,-0.018 0.059,-0.025L0.059,-0.685C0.059,-0.692 0.061,-0.698 0.066,-0.703C0.071,-0.708 0.077,-0.71 0.084,-0.71L0.202,-0.71C0.209,-0.71 0.215,-0.708 0.22,-0.703C0.225,-0.698 0.227,-0.692 0.227,-0.685L0.227,-0.025C0.227,-0.018 0.225,-0.012 0.22,-0.007C0.215,-0.002 0.209,-0 0.202,-0L0.084,-0Z" style="fill:rgb(205,206,214);fill-rule:nonzero;"/>
                </g>
            </g>
            <g transform="matrix(1.1,0,0,1,-95.5448,0)">
                <g transform="matrix(328.301,0,0,328.301,955.448,1437.37)">
                    <path d="M0.084,-0C0.077,-0 0.071,-0.002 0.066,-0.007C0.061,-0.012 0.059,-0.018 0.059,-0.025L0.059,-0.685C0.059,-0.692 0.061,-0.698 0.066,-0.703C0.071,-0.708 0.077,-0.71 0.084,-0.71L0.202,-0.71C0.209,-0.71 0.215,-0.708 0.22,-0.703C0.225,-0.698 0.227,-0.692 0.227,-0.685L0.227,-0.025C0.227,-0.018 0.225,-0.012 0.22,-0.007C0.215,-0.002 0.209,-0 0.202,-0L0.084,-0Z" style="fill:rgb(205,206,214);fill-rule:nonzero;"/>
                </g>
            </g>
        </g>
        <g transform="matrix(-1.24445,-2.10675e-16,1.52401e-16,-1.72029,2083.95,3504.4)">
            <g transform="matrix(328.301,0,0,328.301,665.426,1437.37)">
                <path d="M0.299,0.01C0.22,0.01 0.157,-0.011 0.111,-0.054C0.064,-0.097 0.04,-0.16 0.038,-0.244C0.038,-0.249 0.038,-0.255 0.038,-0.262C0.038,-0.269 0.038,-0.275 0.038,-0.279C0.04,-0.332 0.052,-0.377 0.074,-0.414C0.095,-0.452 0.125,-0.481 0.163,-0.5C0.202,-0.52 0.247,-0.53 0.298,-0.53C0.357,-0.53 0.405,-0.518 0.444,-0.495C0.482,-0.472 0.511,-0.44 0.53,-0.4C0.55,-0.36 0.559,-0.314 0.559,-0.263L0.559,-0.239C0.559,-0.232 0.557,-0.226 0.552,-0.221C0.547,-0.216 0.541,-0.214 0.534,-0.214L0.214,-0.214L0.214,-0.207C0.215,-0.187 0.218,-0.17 0.224,-0.154C0.23,-0.138 0.24,-0.126 0.252,-0.116C0.265,-0.107 0.28,-0.102 0.298,-0.102C0.311,-0.102 0.322,-0.104 0.331,-0.109C0.34,-0.113 0.348,-0.118 0.354,-0.123C0.36,-0.129 0.365,-0.134 0.368,-0.138C0.374,-0.145 0.379,-0.149 0.383,-0.151C0.386,-0.153 0.392,-0.154 0.4,-0.154L0.524,-0.154C0.53,-0.154 0.536,-0.152 0.54,-0.148C0.544,-0.144 0.546,-0.139 0.546,-0.132C0.545,-0.121 0.539,-0.107 0.529,-0.091C0.518,-0.075 0.503,-0.059 0.483,-0.044C0.462,-0.028 0.437,-0.015 0.406,-0.005C0.375,0.005 0.339,0.01 0.299,0.01ZM0.214,-0.313L0.383,-0.313L0.383,-0.315C0.383,-0.337 0.38,-0.355 0.373,-0.371C0.367,-0.387 0.357,-0.399 0.344,-0.408C0.332,-0.416 0.316,-0.421 0.298,-0.421C0.28,-0.421 0.265,-0.416 0.253,-0.408C0.24,-0.399 0.23,-0.387 0.224,-0.371C0.217,-0.355 0.214,-0.337 0.214,-0.315L0.214,-0.313Z" style="fill:rgb(205,206,214);fill-rule:nonzero;"/>
            </g>
        </g>
        <g transform="matrix(1.10021,0,0,1.5209,-66.0016,-568.495)">
            <path d="M1280.39,1188.76C1280.39,1182.99 1275.7,1178.3 1269.93,1178.3L1227.39,1178.3C1221.62,1178.3 1216.93,1182.99 1216.93,1188.76L1216.93,1231.3C1216.93,1237.08 1221.62,1241.76 1227.39,1241.76L1269.93,1241.76C1275.7,1241.76 1280.39,1237.08 1280.39,1231.3L1280.39,1188.76Z" style="fill:rgb(255,179,171);"/>
        </g>
    </g>
</svg>
